<mxfile host="app.diagrams.net" modified="2023-09-18T23:03:09.473Z" agent="Mozilla/5.0 (Windows NT 10.0; Win64; x64) AppleWebKit/537.36 (KHTML, like Gecko) Chrome/116.0.0.0 Safari/537.36" etag="gvqBd234YVfkB0DP-nIe" version="21.7.5" type="device">
  <diagram name="Page-1" id="HWuAZYa7vLfO5rIsiy_T">
    <mxGraphModel dx="1479" dy="1441" grid="1" gridSize="10" guides="1" tooltips="1" connect="1" arrows="1" fold="1" page="1" pageScale="1" pageWidth="850" pageHeight="1100" background="none" math="0" shadow="0">
      <root>
        <mxCell id="0" />
        <mxCell id="1" parent="0" />
        <mxCell id="ft1NnIo1mKDG3LehBfM9-3" value="" style="swimlane;childLayout=stackLayout;horizontal=1;startSize=50;horizontalStack=0;rounded=1;fontSize=14;fontStyle=0;strokeWidth=3;resizeParent=0;resizeLast=1;shadow=0;dashed=0;align=center;arcSize=4;whiteSpace=wrap;html=1;" parent="1" vertex="1">
          <mxGeometry x="340" y="-440" width="160" height="120" as="geometry">
            <mxRectangle x="70" y="100" width="80" height="50" as="alternateBounds" />
          </mxGeometry>
        </mxCell>
        <mxCell id="ft1NnIo1mKDG3LehBfM9-15" value="&lt;b&gt;&lt;font style=&quot;font-size: 15px;&quot;&gt;Evaluating&lt;/font&gt;&lt;/b&gt;&lt;span id=&quot;docs-internal-guid-b16e1cdb-7fff-e0be-6e62-8dd086bc350d&quot;&gt;&lt;/span&gt;&lt;span id=&quot;docs-internal-guid-b16e1cdb-7fff-e0be-6e62-8dd086bc350d&quot;&gt;&lt;/span&gt;" style="text;html=1;align=center;verticalAlign=middle;resizable=0;points=[];autosize=1;strokeColor=none;fillColor=none;" parent="ft1NnIo1mKDG3LehBfM9-3" vertex="1">
          <mxGeometry y="50" width="160" height="70" as="geometry" />
        </mxCell>
        <mxCell id="ft1NnIo1mKDG3LehBfM9-16" style="edgeStyle=orthogonalEdgeStyle;rounded=0;orthogonalLoop=1;jettySize=auto;html=1;entryX=0.69;entryY=1.043;entryDx=0;entryDy=0;strokeWidth=3;exitX=0.659;exitY=0.004;exitDx=0;exitDy=0;entryPerimeter=0;exitPerimeter=0;" parent="1" source="ft1NnIo1mKDG3LehBfM9-4" target="ft1NnIo1mKDG3LehBfM9-15" edge="1">
          <mxGeometry relative="1" as="geometry" />
        </mxCell>
        <mxCell id="ft1NnIo1mKDG3LehBfM9-24" style="edgeStyle=orthogonalEdgeStyle;rounded=0;orthogonalLoop=1;jettySize=auto;html=1;exitX=0;exitY=0.25;exitDx=0;exitDy=0;entryX=1.005;entryY=0.34;entryDx=0;entryDy=0;entryPerimeter=0;strokeWidth=3;" parent="1" source="ft1NnIo1mKDG3LehBfM9-4" target="ft1NnIo1mKDG3LehBfM9-22" edge="1">
          <mxGeometry relative="1" as="geometry">
            <mxPoint x="-48" y="-160" as="targetPoint" />
          </mxGeometry>
        </mxCell>
        <mxCell id="aCHUNYjd5ONpfvqQWO-F-3" style="edgeStyle=orthogonalEdgeStyle;rounded=0;orthogonalLoop=1;jettySize=auto;html=1;exitX=1;exitY=0.5;exitDx=0;exitDy=0;entryX=0;entryY=0.5;entryDx=0;entryDy=0;strokeWidth=3;" edge="1" parent="1" source="ft1NnIo1mKDG3LehBfM9-4" target="aCHUNYjd5ONpfvqQWO-F-1">
          <mxGeometry relative="1" as="geometry" />
        </mxCell>
        <mxCell id="aCHUNYjd5ONpfvqQWO-F-23" style="edgeStyle=orthogonalEdgeStyle;rounded=0;orthogonalLoop=1;jettySize=auto;html=1;exitX=0;exitY=0.75;exitDx=0;exitDy=0;strokeWidth=3;" edge="1" parent="1" source="ft1NnIo1mKDG3LehBfM9-4">
          <mxGeometry relative="1" as="geometry">
            <mxPoint x="-58" y="-120" as="targetPoint" />
          </mxGeometry>
        </mxCell>
        <mxCell id="aCHUNYjd5ONpfvqQWO-F-36" style="edgeStyle=orthogonalEdgeStyle;rounded=0;orthogonalLoop=1;jettySize=auto;html=1;exitX=0.25;exitY=0;exitDx=0;exitDy=0;entryX=0;entryY=0.75;entryDx=0;entryDy=0;strokeWidth=3;" edge="1" parent="1" source="ft1NnIo1mKDG3LehBfM9-4" target="ft1NnIo1mKDG3LehBfM9-3">
          <mxGeometry relative="1" as="geometry" />
        </mxCell>
        <mxCell id="ft1NnIo1mKDG3LehBfM9-4" value="&lt;b&gt;&lt;font style=&quot;font-size: 15px;&quot;&gt;Student&lt;/font&gt;&lt;/b&gt;" style="rounded=0;whiteSpace=wrap;html=1;strokeWidth=3;" parent="1" vertex="1">
          <mxGeometry x="143" y="-180" width="150" height="80" as="geometry" />
        </mxCell>
        <mxCell id="ft1NnIo1mKDG3LehBfM9-31" style="edgeStyle=orthogonalEdgeStyle;rounded=0;orthogonalLoop=1;jettySize=auto;html=1;exitX=0.328;exitY=1.01;exitDx=0;exitDy=0;strokeWidth=3;entryX=0;entryY=0.429;entryDx=0;entryDy=0;entryPerimeter=0;exitPerimeter=0;" parent="1" source="ft1NnIo1mKDG3LehBfM9-35" target="ft1NnIo1mKDG3LehBfM9-30" edge="1">
          <mxGeometry relative="1" as="geometry">
            <mxPoint x="-308" y="75" as="targetPoint" />
          </mxGeometry>
        </mxCell>
        <mxCell id="ft1NnIo1mKDG3LehBfM9-17" value="&lt;b style=&quot;font-weight:normal;&quot; id=&quot;docs-internal-guid-39375290-7fff-3938-4612-e801096b2502&quot;&gt;&lt;span style=&quot;font-size: 11pt; font-family: Arial, sans-serif; color: rgb(0, 0, 0); background-color: transparent; font-weight: 700; font-style: normal; font-variant: normal; text-decoration: none; vertical-align: baseline;&quot;&gt;Students Grade&lt;/span&gt;&lt;/b&gt;" style="text;whiteSpace=wrap;html=1;" parent="1" vertex="1">
          <mxGeometry x="250" y="-242" width="140" height="29" as="geometry" />
        </mxCell>
        <mxCell id="ft1NnIo1mKDG3LehBfM9-21" value="&lt;b style=&quot;font-weight:normal;&quot; id=&quot;docs-internal-guid-5a6dc2d1-7fff-d2d0-395e-1e1ae18f7ee9&quot;&gt;&lt;span style=&quot;font-size: 11pt; font-family: Arial, sans-serif; color: rgb(0, 0, 0); background-color: transparent; font-weight: 700; font-style: normal; font-variant: normal; text-decoration: none; vertical-align: baseline;&quot;&gt;Subjects Available&lt;/span&gt;&lt;/b&gt;" style="text;whiteSpace=wrap;html=1;" parent="1" vertex="1">
          <mxGeometry x="180" y="-390" width="160" height="40" as="geometry" />
        </mxCell>
        <mxCell id="ft1NnIo1mKDG3LehBfM9-26" style="edgeStyle=orthogonalEdgeStyle;rounded=0;orthogonalLoop=1;jettySize=auto;html=1;exitX=-0.005;exitY=0.356;exitDx=0;exitDy=0;exitPerimeter=0;strokeWidth=3;entryX=0.325;entryY=0;entryDx=0;entryDy=0;entryPerimeter=0;" parent="1" source="ft1NnIo1mKDG3LehBfM9-22" target="ft1NnIo1mKDG3LehBfM9-35" edge="1">
          <mxGeometry relative="1" as="geometry">
            <mxPoint x="-440" y="-80" as="targetPoint" />
          </mxGeometry>
        </mxCell>
        <mxCell id="ft1NnIo1mKDG3LehBfM9-22" value="" style="swimlane;childLayout=stackLayout;horizontal=1;startSize=50;horizontalStack=0;rounded=1;fontSize=14;fontStyle=0;strokeWidth=3;resizeParent=0;resizeLast=1;shadow=0;dashed=0;align=center;arcSize=4;whiteSpace=wrap;html=1;" parent="1" vertex="1">
          <mxGeometry x="-218" y="-201" width="160" height="120" as="geometry">
            <mxRectangle x="70" y="100" width="80" height="50" as="alternateBounds" />
          </mxGeometry>
        </mxCell>
        <mxCell id="ft1NnIo1mKDG3LehBfM9-23" value="&lt;span style=&quot;font-size: 15px;&quot;&gt;&lt;b&gt;Manage Account&amp;nbsp;&lt;br&gt;Balances&lt;br&gt;&lt;/b&gt;&lt;/span&gt;" style="text;html=1;align=center;verticalAlign=middle;resizable=0;points=[];autosize=1;strokeColor=none;fillColor=none;" parent="ft1NnIo1mKDG3LehBfM9-22" vertex="1">
          <mxGeometry y="50" width="160" height="70" as="geometry" />
        </mxCell>
        <mxCell id="aCHUNYjd5ONpfvqQWO-F-26" style="edgeStyle=orthogonalEdgeStyle;rounded=0;orthogonalLoop=1;jettySize=auto;html=1;exitX=1;exitY=0.25;exitDx=0;exitDy=0;entryX=0.117;entryY=0.986;entryDx=0;entryDy=0;entryPerimeter=0;strokeWidth=3;" edge="1" parent="1" source="ft1NnIo1mKDG3LehBfM9-29" target="ft1NnIo1mKDG3LehBfM9-4">
          <mxGeometry relative="1" as="geometry" />
        </mxCell>
        <mxCell id="aCHUNYjd5ONpfvqQWO-F-34" style="edgeStyle=orthogonalEdgeStyle;rounded=0;orthogonalLoop=1;jettySize=auto;html=1;entryX=0.737;entryY=0;entryDx=0;entryDy=0;entryPerimeter=0;strokeWidth=3;" edge="1" parent="1" source="ft1NnIo1mKDG3LehBfM9-29" target="ft1NnIo1mKDG3LehBfM9-50">
          <mxGeometry relative="1" as="geometry" />
        </mxCell>
        <mxCell id="ft1NnIo1mKDG3LehBfM9-29" value="" style="swimlane;childLayout=stackLayout;horizontal=1;startSize=50;horizontalStack=0;rounded=1;fontSize=14;fontStyle=0;strokeWidth=3;resizeParent=0;resizeLast=1;shadow=0;dashed=0;align=center;arcSize=4;whiteSpace=wrap;html=1;" parent="1" vertex="1">
          <mxGeometry x="-218" y="-10" width="180" height="120" as="geometry">
            <mxRectangle x="70" y="100" width="80" height="50" as="alternateBounds" />
          </mxGeometry>
        </mxCell>
        <mxCell id="ft1NnIo1mKDG3LehBfM9-30" value="&lt;span style=&quot;font-size: 15px;&quot;&gt;&lt;b&gt;Produce Reports&lt;/b&gt;&lt;/span&gt;" style="text;html=1;align=center;verticalAlign=middle;resizable=0;points=[];autosize=1;strokeColor=none;fillColor=none;" parent="ft1NnIo1mKDG3LehBfM9-29" vertex="1">
          <mxGeometry y="50" width="180" height="70" as="geometry" />
        </mxCell>
        <mxCell id="ft1NnIo1mKDG3LehBfM9-32" style="edgeStyle=orthogonalEdgeStyle;rounded=0;orthogonalLoop=1;jettySize=auto;html=1;strokeWidth=3;entryX=0.5;entryY=1;entryDx=0;entryDy=0;" parent="1" source="ft1NnIo1mKDG3LehBfM9-30" target="ft1NnIo1mKDG3LehBfM9-4" edge="1">
          <mxGeometry relative="1" as="geometry" />
        </mxCell>
        <mxCell id="ft1NnIo1mKDG3LehBfM9-33" value="&lt;b style=&quot;font-weight:normal;&quot; id=&quot;docs-internal-guid-5a6dc2d1-7fff-d2d0-395e-1e1ae18f7ee9&quot;&gt;&lt;span style=&quot;font-size: 11pt; font-family: Arial, sans-serif; color: rgb(0, 0, 0); background-color: transparent; font-weight: 700; font-style: normal; font-variant: normal; text-decoration: none; vertical-align: baseline;&quot;&gt;Request Balance&lt;/span&gt;&lt;/b&gt;" style="text;whiteSpace=wrap;html=1;rotation=0;" parent="1" vertex="1">
          <mxGeometry x="-10" y="-112" width="160" height="40" as="geometry" />
        </mxCell>
        <mxCell id="ft1NnIo1mKDG3LehBfM9-34" value="" style="group;strokeWidth=3;" parent="1" vertex="1" connectable="0">
          <mxGeometry x="-450" y="-70" width="180" height="70" as="geometry" />
        </mxCell>
        <mxCell id="ft1NnIo1mKDG3LehBfM9-35" value="&lt;span style=&quot;font-size: 16px;&quot;&gt;&lt;b&gt;&lt;br&gt;Students&lt;br&gt;Wela Account&lt;br&gt;&lt;/b&gt;&lt;/span&gt;" style="shape=partialRectangle;whiteSpace=wrap;html=1;left=0;right=0;fillColor=none;strokeWidth=3;" parent="ft1NnIo1mKDG3LehBfM9-34" vertex="1">
          <mxGeometry x="-60" width="240" height="70" as="geometry" />
        </mxCell>
        <mxCell id="ft1NnIo1mKDG3LehBfM9-36" value="" style="endArrow=none;html=1;rounded=0;exitX=0.25;exitY=1;exitDx=0;exitDy=0;entryX=0.25;entryY=0;entryDx=0;entryDy=0;strokeWidth=3;" parent="ft1NnIo1mKDG3LehBfM9-34" source="ft1NnIo1mKDG3LehBfM9-35" target="ft1NnIo1mKDG3LehBfM9-35" edge="1">
          <mxGeometry width="50" height="50" relative="1" as="geometry">
            <mxPoint x="187.49999999999997" y="104.99999999999999" as="sourcePoint" />
            <mxPoint x="262.49999999999994" y="29.999999999999996" as="targetPoint" />
          </mxGeometry>
        </mxCell>
        <mxCell id="ft1NnIo1mKDG3LehBfM9-37" value="" style="endArrow=none;html=1;rounded=0;exitX=0;exitY=1;exitDx=0;exitDy=0;entryX=0;entryY=0;entryDx=0;entryDy=0;strokeWidth=3;" parent="ft1NnIo1mKDG3LehBfM9-34" source="ft1NnIo1mKDG3LehBfM9-35" target="ft1NnIo1mKDG3LehBfM9-35" edge="1">
          <mxGeometry width="50" height="50" relative="1" as="geometry">
            <mxPoint x="59.99999999999999" y="104.99999999999999" as="sourcePoint" />
            <mxPoint x="59.99999999999999" y="14.999999999999998" as="targetPoint" />
          </mxGeometry>
        </mxCell>
        <mxCell id="aCHUNYjd5ONpfvqQWO-F-25" style="edgeStyle=orthogonalEdgeStyle;rounded=0;orthogonalLoop=1;jettySize=auto;html=1;entryX=0.5;entryY=0;entryDx=0;entryDy=0;strokeWidth=3;exitX=0.008;exitY=0.298;exitDx=0;exitDy=0;exitPerimeter=0;" edge="1" parent="1" source="ft1NnIo1mKDG3LehBfM9-23" target="ft1NnIo1mKDG3LehBfM9-35">
          <mxGeometry relative="1" as="geometry">
            <mxPoint x="-220" y="-130" as="sourcePoint" />
          </mxGeometry>
        </mxCell>
        <mxCell id="ft1NnIo1mKDG3LehBfM9-38" value="&lt;font face=&quot;Arial, sans-serif&quot;&gt;&lt;span style=&quot;font-size: 14.6667px;&quot;&gt;&lt;b&gt;Balance Data&lt;/b&gt;&lt;/span&gt;&lt;/font&gt;" style="text;whiteSpace=wrap;html=1;" parent="1" vertex="1">
          <mxGeometry x="-378" y="-121" width="160" height="40" as="geometry" />
        </mxCell>
        <mxCell id="ft1NnIo1mKDG3LehBfM9-40" value="&lt;font face=&quot;Arial, sans-serif&quot;&gt;&lt;span style=&quot;font-size: 14.6667px;&quot;&gt;&lt;b&gt;Balance Reports&lt;/b&gt;&lt;/span&gt;&lt;/font&gt;" style="text;whiteSpace=wrap;html=1;" parent="1" vertex="1">
          <mxGeometry x="8" y="-20" width="160" height="40" as="geometry" />
        </mxCell>
        <mxCell id="ft1NnIo1mKDG3LehBfM9-46" value="&lt;font face=&quot;Arial, sans-serif&quot;&gt;&lt;span style=&quot;font-size: 14.6667px;&quot;&gt;&lt;b&gt;Payment&lt;/b&gt;&lt;/span&gt;&lt;/font&gt;" style="text;whiteSpace=wrap;html=1;" parent="1" vertex="1">
          <mxGeometry y="-192" width="160" height="40" as="geometry" />
        </mxCell>
        <mxCell id="ft1NnIo1mKDG3LehBfM9-49" value="&lt;font size=&quot;1&quot; face=&quot;Arial, sans-serif&quot;&gt;&lt;b style=&quot;font-size: 15px;&quot;&gt;Payments Receipt&lt;/b&gt;&lt;/font&gt;" style="text;whiteSpace=wrap;html=1;rotation=0;" parent="1" vertex="1">
          <mxGeometry x="8" y="80" width="145.5" height="40" as="geometry" />
        </mxCell>
        <mxCell id="ft1NnIo1mKDG3LehBfM9-50" value="&lt;b&gt;&lt;font style=&quot;font-size: 15px;&quot;&gt;Accounting Office&lt;/font&gt;&lt;/b&gt;" style="rounded=0;whiteSpace=wrap;html=1;strokeWidth=3;" parent="1" vertex="1">
          <mxGeometry x="-260" y="225" width="180" height="70" as="geometry" />
        </mxCell>
        <mxCell id="ft1NnIo1mKDG3LehBfM9-58" value="&lt;div style=&quot;text-align: right;&quot;&gt;&lt;span style=&quot;font-size: 15px;&quot;&gt;&lt;b&gt;Remaining Fee&#39;s&lt;/b&gt;&lt;/span&gt;&lt;/div&gt;" style="text;whiteSpace=wrap;html=1;" parent="1" vertex="1">
          <mxGeometry x="-390" y="-192" width="160" height="40" as="geometry" />
        </mxCell>
        <mxCell id="aCHUNYjd5ONpfvqQWO-F-12" style="edgeStyle=orthogonalEdgeStyle;rounded=0;orthogonalLoop=1;jettySize=auto;html=1;entryX=0.5;entryY=0;entryDx=0;entryDy=0;strokeWidth=3;" edge="1" parent="1" source="aCHUNYjd5ONpfvqQWO-F-1" target="aCHUNYjd5ONpfvqQWO-F-6">
          <mxGeometry relative="1" as="geometry" />
        </mxCell>
        <mxCell id="aCHUNYjd5ONpfvqQWO-F-1" value="" style="swimlane;childLayout=stackLayout;horizontal=1;startSize=50;horizontalStack=0;rounded=1;fontSize=14;fontStyle=0;strokeWidth=3;resizeParent=0;resizeLast=1;shadow=0;dashed=0;align=center;arcSize=4;whiteSpace=wrap;html=1;" vertex="1" parent="1">
          <mxGeometry x="450" y="-200" width="160" height="120" as="geometry">
            <mxRectangle x="70" y="100" width="80" height="50" as="alternateBounds" />
          </mxGeometry>
        </mxCell>
        <mxCell id="aCHUNYjd5ONpfvqQWO-F-2" value="&lt;span style=&quot;font-size: 15px;&quot;&gt;&lt;b&gt;Arranging &lt;br&gt;Schedules&lt;/b&gt;&lt;/span&gt;" style="text;html=1;align=center;verticalAlign=middle;resizable=0;points=[];autosize=1;strokeColor=none;fillColor=none;" vertex="1" parent="aCHUNYjd5ONpfvqQWO-F-1">
          <mxGeometry y="50" width="160" height="70" as="geometry" />
        </mxCell>
        <mxCell id="aCHUNYjd5ONpfvqQWO-F-4" value="&lt;font face=&quot;Arial, sans-serif&quot;&gt;&lt;span style=&quot;font-size: 15px;&quot;&gt;&lt;b&gt;Chosen Subjects&lt;/b&gt;&lt;/span&gt;&lt;/font&gt;" style="text;whiteSpace=wrap;html=1;" vertex="1" parent="1">
          <mxGeometry x="300" y="-140" width="130" height="40" as="geometry" />
        </mxCell>
        <mxCell id="aCHUNYjd5ONpfvqQWO-F-8" value="" style="group" vertex="1" connectable="0" parent="1">
          <mxGeometry x="410" y="30" width="240" height="80" as="geometry" />
        </mxCell>
        <mxCell id="aCHUNYjd5ONpfvqQWO-F-6" value="&lt;span style=&quot;font-size: 16px;&quot;&gt;&lt;b&gt;Pending &lt;br&gt;Approval of&lt;br&gt;Subjects&lt;br&gt;&lt;/b&gt;&lt;/span&gt;" style="shape=partialRectangle;whiteSpace=wrap;html=1;left=0;right=0;fillColor=none;strokeWidth=3;" vertex="1" parent="aCHUNYjd5ONpfvqQWO-F-8">
          <mxGeometry width="240" height="80" as="geometry" />
        </mxCell>
        <mxCell id="aCHUNYjd5ONpfvqQWO-F-7" value="" style="shape=partialRectangle;whiteSpace=wrap;html=1;top=0;bottom=0;fillColor=none;strokeWidth=3;" vertex="1" parent="aCHUNYjd5ONpfvqQWO-F-8">
          <mxGeometry width="70" height="80" as="geometry" />
        </mxCell>
        <mxCell id="aCHUNYjd5ONpfvqQWO-F-13" value="&lt;font face=&quot;Arial, sans-serif&quot;&gt;&lt;span style=&quot;font-size: 15px;&quot;&gt;&lt;b&gt;Schedules in every Subjects&lt;/b&gt;&lt;/span&gt;&lt;/font&gt;" style="text;whiteSpace=wrap;html=1;" vertex="1" parent="1">
          <mxGeometry x="540" y="-60" width="160" height="40" as="geometry" />
        </mxCell>
        <mxCell id="aCHUNYjd5ONpfvqQWO-F-18" style="edgeStyle=orthogonalEdgeStyle;rounded=0;orthogonalLoop=1;jettySize=auto;html=1;strokeWidth=3;" edge="1" parent="1" source="aCHUNYjd5ONpfvqQWO-F-14">
          <mxGeometry relative="1" as="geometry">
            <mxPoint x="270" y="-100" as="targetPoint" />
            <Array as="points">
              <mxPoint x="270" y="260" />
              <mxPoint x="270" y="-100" />
            </Array>
          </mxGeometry>
        </mxCell>
        <mxCell id="aCHUNYjd5ONpfvqQWO-F-14" value="" style="swimlane;childLayout=stackLayout;horizontal=1;startSize=50;horizontalStack=0;rounded=1;fontSize=14;fontStyle=0;strokeWidth=3;resizeParent=0;resizeLast=1;shadow=0;dashed=0;align=center;arcSize=4;whiteSpace=wrap;html=1;" vertex="1" parent="1">
          <mxGeometry x="460" y="200" width="160" height="120" as="geometry">
            <mxRectangle x="70" y="100" width="80" height="50" as="alternateBounds" />
          </mxGeometry>
        </mxCell>
        <mxCell id="aCHUNYjd5ONpfvqQWO-F-15" value="&lt;span style=&quot;font-size: 15px;&quot;&gt;&lt;b&gt;Printing Copy &lt;br&gt;of&amp;nbsp; Approved &lt;br&gt;Subjects&lt;/b&gt;&lt;/span&gt;" style="text;html=1;align=center;verticalAlign=middle;resizable=0;points=[];autosize=1;strokeColor=none;fillColor=none;" vertex="1" parent="aCHUNYjd5ONpfvqQWO-F-14">
          <mxGeometry y="50" width="160" height="70" as="geometry" />
        </mxCell>
        <mxCell id="aCHUNYjd5ONpfvqQWO-F-16" style="edgeStyle=orthogonalEdgeStyle;rounded=0;orthogonalLoop=1;jettySize=auto;html=1;entryX=0.438;entryY=-0.017;entryDx=0;entryDy=0;entryPerimeter=0;strokeWidth=3;" edge="1" parent="1" source="aCHUNYjd5ONpfvqQWO-F-6" target="aCHUNYjd5ONpfvqQWO-F-14">
          <mxGeometry relative="1" as="geometry" />
        </mxCell>
        <mxCell id="aCHUNYjd5ONpfvqQWO-F-20" value="&lt;font face=&quot;Arial, sans-serif&quot;&gt;&lt;span style=&quot;font-size: 15px;&quot;&gt;&lt;b&gt;Copy of Subjects&lt;/b&gt;&lt;/span&gt;&lt;/font&gt;" style="text;whiteSpace=wrap;html=1;rotation=0;" vertex="1" parent="1">
          <mxGeometry x="292" y="220" width="131" height="40" as="geometry" />
        </mxCell>
        <mxCell id="aCHUNYjd5ONpfvqQWO-F-21" value="&lt;font face=&quot;Arial, sans-serif&quot;&gt;&lt;span style=&quot;font-size: 14.6667px;&quot;&gt;&lt;b&gt;Accounts Recievables&lt;/b&gt;&lt;/span&gt;&lt;/font&gt;" style="text;whiteSpace=wrap;html=1;" vertex="1" parent="1">
          <mxGeometry x="-420" y="70" width="160" height="40" as="geometry" />
        </mxCell>
        <mxCell id="aCHUNYjd5ONpfvqQWO-F-22" value="&lt;font face=&quot;Arial, sans-serif&quot;&gt;&lt;span style=&quot;font-size: 14.6667px;&quot;&gt;&lt;b&gt;Students Accounts Bills Reports&lt;/b&gt;&lt;/span&gt;&lt;/font&gt;" style="text;whiteSpace=wrap;html=1;" vertex="1" parent="1">
          <mxGeometry x="-270" y="150" width="160" height="40" as="geometry" />
        </mxCell>
        <mxCell id="aCHUNYjd5ONpfvqQWO-F-29" style="edgeStyle=orthogonalEdgeStyle;rounded=0;orthogonalLoop=1;jettySize=auto;html=1;exitX=0.5;exitY=1;exitDx=0;exitDy=0;entryX=0.004;entryY=0.372;entryDx=0;entryDy=0;entryPerimeter=0;strokeWidth=3;" edge="1" parent="1" source="ft1NnIo1mKDG3LehBfM9-35" target="ft1NnIo1mKDG3LehBfM9-29">
          <mxGeometry relative="1" as="geometry" />
        </mxCell>
        <mxCell id="aCHUNYjd5ONpfvqQWO-F-32" value="&lt;font face=&quot;Arial, sans-serif&quot;&gt;&lt;span style=&quot;font-size: 14.6667px;&quot;&gt;&lt;b&gt;Accounts Recievables&lt;/b&gt;&lt;/span&gt;&lt;/font&gt;" style="text;whiteSpace=wrap;html=1;" vertex="1" parent="1">
          <mxGeometry x="-390" width="160" height="40" as="geometry" />
        </mxCell>
      </root>
    </mxGraphModel>
  </diagram>
</mxfile>
